# xmcd CD database file
#
# Track frame offsets:
#	150
#	17341
#	35026
#	49128
#	68566
#	80759
#	94563
#	111986
#	126105
#	141228
#	154480
#	164876
#	176225
#	193056
#	204655
#	216836
#	231210
#	248766
#	260824
#	270950
#	289626
#	297538
#	309072
#	325896
#	341410
#
# Disc length: 4751 seconds
#
# Revision: 0
# Processed by: cddbd v1.5.2PL0 Copyright (c) Steve Scherf et al.
# Submitted via: CDex 1.51
#
DISCID=80128d19
DTITLE=Kadonneet iskelmät  - Kadonneet iskelmät - CD01 - Harvinaisia levytyksiä 1970-  ja 1980-luvuita
DYEAR=2019
DGENRE=Iskelmä
TTITLE0=Pepe Lauanne - Itke silloin
TTITLE1=Marton Garam - Sun vierellesi jaan
TTITLE2=Kai Lind - Mita teet kun soitto paattyy
TTITLE3=Juhani Nummi - Oon jaanyt yksin sateeseen
TTITLE4=Keijo-Antero - Onko ihminen onnellinen
TTITLE5=Rauni Pekkala - Sovinto
TTITLE6=Enrico Canto - Etaisyys
TTITLE7=Marton Garam - Rannan kivet
TTITLE8=Meiju and Kari - Jos sinakin tahdot
TTITLE9=Kopi Koski and Projekti - Myllylla on tunnelmaa
TTITLE10=Keijo-Antero - Silmiesi katse
TTITLE11=Raija Ruuska - Itamaan ruusuja
TTITLE12=Esko Koskinen - Seurahuoneen tango
TTITLE13=Kopi Koski and Projekti - Hurja humppa kajahtaa
TTITLE14=Leena-Kristiina - Tule meille
TTITLE15=Saksa Brothers - Maria
TTITLE16=Hannu Hakli - Paivamatka
TTITLE17=Amulet - Onhan viela aikaa
TTITLE18=Kari Kuuva - Meita on niin moneen junaan
TTITLE19=Hannu Hakli - Elamani nainen
TTITLE20=Hannele - Rahatonta onnea
TTITLE21=Esko Larkas - 7-ratikassa
TTITLE22=Robin - Kun pojat tuloo takaasin
TTITLE23=Reijo Salminen - Herrasmies on herrasmies
TTITLE24=Eugen Malmsten - Kohtalokas samba
EXTD=YEAR: 2019
EXTT0=
EXTT1=
EXTT2=
EXTT3=
EXTT4=
EXTT5=
EXTT6=
EXTT7=
EXTT8=
EXTT9=
EXTT10=
EXTT11=
EXTT12=
EXTT13=
EXTT14=
EXTT15=
EXTT16=
EXTT17=
EXTT18=
EXTT19=
EXTT20=
EXTT21=
EXTT22=
EXTT23=
EXTT24=
PLAYORDER=
